<svg xmlns="http://www.w3.org/2000/svg" viewBox="0 0 25.96 37.84"><g data-name="レイヤー 2"><g data-name="レイヤー 1"><path d="M22 10.93A9 9 0 1 1 13 2a9 9 0 0 1 9 8.93z" stroke-miterlimit="10" stroke-width="4" stroke="#231815" fill="#fff"/><path d="M22.47 23.44c3.68 6.87.31 12.45-7.48 12.4H10.9c-7.8-.08-11.1-5.72-7.35-12.55l2.72-4.95c3.75-6.84 9.83-6.8 13.51.07z" fill="#fff"/><path d="M22.47 23.44c3.68 6.87.31 12.45-7.48 12.4H10.9c-7.8-.08-11.1-5.72-7.35-12.55l2.72-4.95c3.75-6.84 9.83-6.8 13.51.07z" fill="none" stroke-miterlimit="10" stroke-width="4" stroke="#231815"/><path d="M18.11 10.93a5.24 5.24 0 0 1-5.17 5.31 5.24 5.24 0 0 1-5.16-5.31 5.24 5.24 0 0 1 5.16-5.32 5.24 5.24 0 0 1 5.17 5.32z" stroke="#fff" stroke-miterlimit="10" stroke-width="4" fill="#fff"/></g></g></svg>