<svg xmlns="http://www.w3.org/2000/svg" viewBox="0 0 287.92 42.04"><g data-name="レイヤー 2"><g data-name="レイヤー 1"><path d="M16.25 14.05h5.42L9.21 25.78l12.44 13.78h-5.19L4.22 26h-.06v13.56H0V.67h4.16v24.76h.06zm13.13 3.54h.09A13.32 13.32 0 0 1 31 15.94a9.6 9.6 0 0 1 1.9-1.34 9.5 9.5 0 0 1 2.3-.9 10.62 10.62 0 0 1 2.72-.33 10.88 10.88 0 0 1 3.28.49 6.67 6.67 0 0 1 2.66 1.56 7.47 7.47 0 0 1 1.79 2.8 12.31 12.31 0 0 1 .65 4.26v17.08h-4.16V23.15c0-2.2-.42-3.79-1.27-4.75a4.69 4.69 0 0 0-3.72-1.4A8 8 0 0 0 33 18.14a11.14 11.14 0 0 0-3.46 3.29v18.13h-4.18V14.05h3.22zm23.76-9.48V3.46h4.17v4.65zm.11 31.45V14.05h4.16v25.51zm22.31-26.19a15.77 15.77 0 0 1 3.55.39A10.7 10.7 0 0 1 82 14.85v3.47a22.68 22.68 0 0 0-3.12-1A12.76 12.76 0 0 0 76 17a9.76 9.76 0 0 0-3.09.51 7.08 7.08 0 0 0-2.73 1.68 8.23 8.23 0 0 0-2 3.08 13.42 13.42 0 0 0-.74 4.77 12.48 12.48 0 0 0 .56 3.84 8.48 8.48 0 0 0 1.64 3 7.2 7.2 0 0 0 2.72 2 9.39 9.39 0 0 0 3.79.71 15.3 15.3 0 0 0 3.14-.33 17.55 17.55 0 0 0 3.09-1v3.47a7.19 7.19 0 0 1-1.19.54 15.13 15.13 0 0 1-1.63.47c-.59.13-1.22.24-1.88.32a16.48 16.48 0 0 1-2 .12 15.06 15.06 0 0 1-4.87-.78 10.93 10.93 0 0 1-4-2.39A11.24 11.24 0 0 1 64.12 33a15.73 15.73 0 0 1-1-5.86 18 18 0 0 1 .52-4.53A13.45 13.45 0 0 1 65.09 19a10.78 10.78 0 0 1 2.13-2.6 11.86 11.86 0 0 1 2.61-1.76 12 12 0 0 1 2.86-1 14.39 14.39 0 0 1 2.87-.27zm28.19.68h5.42L96.71 25.78l12.44 13.78H104L91.72 26h-.06v13.56H87.5V.67h4.16v24.76h.06zm24.04 22.69h-.11a8.19 8.19 0 0 1-1.29 1.26 9.36 9.36 0 0 1-1.8 1.13 11.07 11.07 0 0 1-4.8 1.09 10 10 0 0 1-3.4-.55 7.53 7.53 0 0 1-2.66-1.61 7.32 7.32 0 0 1-1.73-2.58 9.06 9.06 0 0 1-.62-3.47 8.24 8.24 0 0 1 .68-3.41 7.34 7.34 0 0 1 1.94-2.55 8.67 8.67 0 0 1 3-1.61 12.22 12.22 0 0 1 3.83-.57 22 22 0 0 1 3.68.35 20 20 0 0 1 3 .81h.1v-1.77a11.46 11.46 0 0 0-.13-1.86A4.65 4.65 0 0 0 127 20a5.35 5.35 0 0 0-2.23-2.13 8.49 8.49 0 0 0-4.13-.85 17.62 17.62 0 0 0-3.64.36 22.7 22.7 0 0 0-3.4 1v-3.5a10.66 10.66 0 0 1 1.52-.61 18.25 18.25 0 0 1 1.84-.48 19.9 19.9 0 0 1 2-.31c.72-.07 1.43-.11 2.15-.11a12.92 12.92 0 0 1 6.32 1.37 8.17 8.17 0 0 1 3.57 3.63 7.32 7.32 0 0 1 .58 1.89 13.31 13.31 0 0 1 .18 2.27v17h-3.5zm-.22-8.38c-.76-.22-1.67-.42-2.72-.62a20.51 20.51 0 0 0-3.48-.32 6.76 6.76 0 0 0-4.14 1.13 4 4 0 0 0-1.5 3.46 5.28 5.28 0 0 0 .37 2.07 4 4 0 0 0 1 1.46 4.27 4.27 0 0 0 1.55.86 6.32 6.32 0 0 0 1.92.28 7.91 7.91 0 0 0 2.48-.38 10.49 10.49 0 0 0 2-.93 13.36 13.36 0 0 0 2.44-1.91zm35.03-1.53a16.45 16.45 0 0 1-.86 5.48 12.41 12.41 0 0 1-2.43 4.23 10.63 10.63 0 0 1-3.8 2.72 12.31 12.31 0 0 1-5 1 12.63 12.63 0 0 1-5.09-1 10.59 10.59 0 0 1-3.81-2.72 12.21 12.21 0 0 1-2.41-4.23 17.26 17.26 0 0 1-.83-5.48 16.81 16.81 0 0 1 .86-5.51 12.45 12.45 0 0 1 2.43-4.24 10.81 10.81 0 0 1 3.81-2.74 12.64 12.64 0 0 1 5-1 12.89 12.89 0 0 1 5.08 1 10.63 10.63 0 0 1 3.81 2.74 12.21 12.21 0 0 1 2.39 4.24 17.09 17.09 0 0 1 .85 5.51zm-4.35 0a13.8 13.8 0 0 0-.58-4.2 9.2 9.2 0 0 0-1.61-3.12 6.8 6.8 0 0 0-2.45-1.93 7.33 7.33 0 0 0-3.12-.66 7.26 7.26 0 0 0-3.11.66 6.84 6.84 0 0 0-2.46 1.93 9.2 9.2 0 0 0-1.61 3.12 13.8 13.8 0 0 0-.58 4.2 13.69 13.69 0 0 0 .58 4.17 8.91 8.91 0 0 0 1.62 3.11A7 7 0 0 0 147.4 36a7.33 7.33 0 0 0 3.12.65 7.21 7.21 0 0 0 3.1-.65 6.94 6.94 0 0 0 2.44-1.92 9.06 9.06 0 0 0 1.61-3.08 13.69 13.69 0 0 0 .58-4.17zm30.39-9.21v21.94h-4.16V17.62h-11.57v21.94h-4.17V17.62h-4.48v-3.57h4.48V10a12.57 12.57 0 0 1 .74-4.55 8.56 8.56 0 0 1 2-3.11 7.66 7.66 0 0 1 3-1.8 11.25 11.25 0 0 1 3.64-.54 16.44 16.44 0 0 1 1.88.11 14 14 0 0 1 1.52.24v3.52c-.57-.09-1.09-.15-1.56-.19s-.88-.05-1.23-.05a8.08 8.08 0 0 0-2.46.34 4.44 4.44 0 0 0-1.83 1.12 5 5 0 0 0-1.12 2 10.25 10.25 0 0 0-.39 3v3.93h11.57v-3a11.89 11.89 0 0 1 1-5.14 9.62 9.62 0 0 1 2.66-3.42 10.42 10.42 0 0 1 3.76-1.87 16.25 16.25 0 0 1 4.35-.59c.54 0 1.1 0 1.68.07s1.15.1 1.72.19 1.1.17 1.62.28a10.85 10.85 0 0 1 1.37.35v3.54c-1-.25-2-.45-2.94-.59a19.73 19.73 0 0 0-2.91-.21c-2.67 0-4.7.61-6.09 1.85s-2.08 3.12-2.08 5.67v2.9h15.74v25.51h-4.16V17.62zm33.42-4.25a15.77 15.77 0 0 1 3.55.39 10.7 10.7 0 0 1 2.9 1.09v3.47a22.68 22.68 0 0 0-3.12-1 12.76 12.76 0 0 0-2.9-.32 9.76 9.76 0 0 0-3.09.51 7.08 7.08 0 0 0-2.73 1.68 8.23 8.23 0 0 0-1.95 3.08 13.42 13.42 0 0 0-.74 4.77 12.48 12.48 0 0 0 .55 3.81 8.48 8.48 0 0 0 1.64 3 7.2 7.2 0 0 0 2.72 2 9.39 9.39 0 0 0 3.79.71 15.3 15.3 0 0 0 3.14-.33 17.55 17.55 0 0 0 3.09-1v3.47a7.19 7.19 0 0 1-1.19.54 15.13 15.13 0 0 1-1.63.47c-.59.13-1.22.24-1.88.32a16.48 16.48 0 0 1-2 .12 15.06 15.06 0 0 1-4.87-.78 10.93 10.93 0 0 1-4-2.39 11.24 11.24 0 0 1-2.72-3.98 15.73 15.73 0 0 1-1-5.86 18 18 0 0 1 .52-4.53 13.45 13.45 0 0 1 1.45-3.61 10.78 10.78 0 0 1 2.13-2.6 11.86 11.86 0 0 1 2.61-1.76 12 12 0 0 1 2.86-1 14.39 14.39 0 0 1 2.87-.27zm23.78 23.23a20 20 0 0 0 3.78-.33 22.34 22.34 0 0 0 3.39-1v3.47a13.48 13.48 0 0 1-3.38 1.06 22.68 22.68 0 0 1-4.32.39 18.26 18.26 0 0 1-5.15-.7 10.69 10.69 0 0 1-4.16-2.21 10.51 10.51 0 0 1-2.75-4.07 16.57 16.57 0 0 1-1-6.06 17.17 17.17 0 0 1 1-6 12.8 12.8 0 0 1 2.57-4.29 10.59 10.59 0 0 1 3.7-2.58 11.41 11.41 0 0 1 4.36-.86 11 11 0 0 1 4 .72 8.17 8.17 0 0 1 3.23 2.24 10.8 10.8 0 0 1 2.15 4 18.65 18.65 0 0 1 .79 5.8v1.55h-17.66a10.48 10.48 0 0 0 .74 4.15 7.27 7.27 0 0 0 2 2.77 8.06 8.06 0 0 0 3 1.54 13.68 13.68 0 0 0 3.71.41zM243.65 17a6.31 6.31 0 0 0-2.68.56 7 7 0 0 0-2.16 1.44 7.73 7.73 0 0 0-1.5 2.27 9.17 9.17 0 0 0-.71 2.78h13.06a9.79 9.79 0 0 0-.4-2.81 6.94 6.94 0 0 0-1.15-2.24 5.42 5.42 0 0 0-1.88-1.51 5.7 5.7 0 0 0-2.58-.49z" fill="#231815"/><path d="M283.91 15.12a9 9 0 1 1-9-8.92 9 9 0 0 1 9 8.92z" stroke-miterlimit="10" stroke-width="4" stroke="#231815" fill="#fff"/><path d="M284.43 27.64c3.68 6.87.31 12.45-7.49 12.4h-4.08c-7.8 0-11.11-5.69-7.35-12.52l2.72-4.95c3.75-6.84 9.83-6.8 13.51.07z" fill="#fff"/><path d="M284.43 27.64c3.68 6.87.31 12.45-7.49 12.4h-4.08c-7.8 0-11.11-5.69-7.35-12.52l2.72-4.95c3.75-6.84 9.83-6.8 13.51.07z" fill="none" stroke-miterlimit="10" stroke-width="4" stroke="#231815"/><path d="M280.06 15.13a5.16 5.16 0 1 1-10.32 0 5.16 5.16 0 1 1 10.32 0z" stroke="#fff" stroke-miterlimit="10" stroke-width="4" fill="#fff"/></g></g></svg>