<svg xmlns="http://www.w3.org/2000/svg" viewBox="0 0 25.96 37.84"><defs><style>.cls-1,.cls-2,.cls-4{fill:#fff;}.cls-1,.cls-3{stroke:#231815;}.cls-1,.cls-3,.cls-4{stroke-miterlimit:10;stroke-width:4px;}.cls-3{fill:none;}.cls-4{stroke:#fff;}</style></defs><g id="レイヤー_2" data-name="レイヤー 2"><g id="レイヤー_1-2" data-name="レイヤー 1"><path class="cls-1" d="M22,10.93a9,9,0,1,1-9-8.93A9,9,0,0,1,22,10.93Z"/><path class="cls-2" d="M22.47,23.44c3.68,6.87.31,12.45-7.48,12.4l-4.09,0C3.1,35.76-.2,30.12,3.55,23.29l2.72-4.95c3.75-6.84,9.83-6.8,13.51.07Z"/><path class="cls-3" d="M22.47,23.44c3.68,6.87.31,12.45-7.48,12.4l-4.09,0C3.1,35.76-.2,30.12,3.55,23.29l2.72-4.95c3.75-6.84,9.83-6.8,13.51.07Z"/><path class="cls-4" d="M18.11,10.93a5.24,5.24,0,0,1-5.17,5.31,5.24,5.24,0,0,1-5.16-5.31,5.24,5.24,0,0,1,5.16-5.32A5.24,5.24,0,0,1,18.11,10.93Z"/></g></g></svg>