<svg data-name="2" xmlns="http://www.w3.org/2000/svg" viewBox="0 0 512 512"><path d="M510.68 112.27a71 71 0 0 0-14.66-31 61.23 61.23 0 0 0-4.83-5.34A70.84 70.84 0 0 0 441 55.06H71a71 71 0 0 0-50.19 20.82A62.76 62.76 0 0 0 16 81.22a69.89 69.89 0 0 0-14.6 31.05A68.2 68.2 0 0 0 0 126.09v259.83a70.58 70.58 0 0 0 5.88 28.2 69.64 69.64 0 0 0 14.93 22c1.59 1.59 3.17 3.05 4.89 4.5A71 71 0 0 0 71 456.94h370a70.49 70.49 0 0 0 45.32-16.39 58.18 58.18 0 0 0 4.89-4.43 71 71 0 0 0 15-22v-.06a70.24 70.24 0 0 0 5.79-28.14V126.09a73.57 73.57 0 0 0-1.32-13.82zm-464.17-10.7A34.29 34.29 0 0 1 71 91.4h370a34.06 34.06 0 0 1 27.62 13.81l-193.9 169a28.45 28.45 0 0 1-37.4 0L43.47 105.14a26.63 26.63 0 0 1 3.04-3.57zM36.33 385.92V142.73l140.33 122.42L36.4 387.43a10.41 10.41 0 0 1-.07-1.51zM441 420.6H71a34.09 34.09 0 0 1-17.15-4.6l148-129 13.82 12a61.46 61.46 0 0 0 80.79 0l13.81-12 147.89 129a34.16 34.16 0 0 1-17.16 4.6zm34.69-34.68a10.62 10.62 0 0 1-.07 1.52L335.35 265.22 475.67 142.8z" fill="#707070"/></svg>