<svg xmlns="http://www.w3.org/2000/svg" width="38.691" height="30.369"><path d="M38.592 4.322a5.365 5.365 0 0 0-1.108-2.343 4.627 4.627 0 0 0-.365-.4A5.353 5.353 0 0 0 33.326.002H5.365a5.365 5.365 0 0 0-3.793 1.573 4.745 4.745 0 0 0-.363.4 5.282 5.282 0 0 0-1.1 2.346A5.154 5.154 0 0 0 0 5.367v19.635a5.333 5.333 0 0 0 .444 2.131 5.263 5.263 0 0 0 1.128 1.663c.12.12.24.23.37.34a5.365 5.365 0 0 0 3.423 1.233h27.961a5.327 5.327 0 0 0 3.425-1.239 4.4 4.4 0 0 0 .37-.335 5.366 5.366 0 0 0 1.134-1.663 5.308 5.308 0 0 0 .438-2.127V5.367a5.559 5.559 0 0 0-.101-1.045zM3.515 3.514a2.591 2.591 0 0 1 1.851-.769h27.96a2.574 2.574 0 0 1 2.087 1.044L20.76 16.56a2.15 2.15 0 0 1-2.826 0L3.285 3.784a2.013 2.013 0 0 1 .23-.27zm-.77 21.488V6.624l10.6 9.251-10.6 9.241a.787.787 0 0 1 0-.114zm30.581 2.621H5.365a2.576 2.576 0 0 1-1.3-.348l11.184-9.748 1.044.907a4.645 4.645 0 0 0 6.105 0l1.044-.907 11.176 9.748a2.582 2.582 0 0 1-1.292.348zm2.622-2.621a.8.8 0 0 1-.005.115l-10.6-9.236 10.6-9.251z" fill="#f21d46"/></svg>