<svg id="レイヤー_1" data-name="レイヤー 1" xmlns="http://www.w3.org/2000/svg" viewBox="0 0 250 203.18"><defs><style>.cls-1{fill:#707070;}</style></defs><g id="レイヤー_2" data-name="レイヤー 2"><g id="Logo_FIXED" data-name="Logo FIXED"><path class="cls-1" d="M78.62,203.18C173,203.18,224.56,125,224.56,57.24q0-3.33-.15-6.63A104.23,104.23,0,0,0,250,24.05a101.94,101.94,0,0,1-29.46,8.08A51.52,51.52,0,0,0,243.1,3.76a103.09,103.09,0,0,1-32.57,12.45A51.34,51.34,0,0,0,123.12,63,145.59,145.59,0,0,1,17.4,9.39,51.33,51.33,0,0,0,33.28,77.87a50.88,50.88,0,0,1-23.23-6.42v.65A51.31,51.31,0,0,0,51.2,122.39a51.54,51.54,0,0,1-23.17.88A51.33,51.33,0,0,0,76,158.89a102.9,102.9,0,0,1-63.7,22A104.62,104.62,0,0,1,0,180.14a145.22,145.22,0,0,0,78.62,23"/></g></g></svg>