<svg xmlns="http://www.w3.org/2000/svg" viewBox="0 0 120 120"><defs><style>.cls-1{fill:#00b900}</style></defs><g id="レイヤー_2" data-name="レイヤー 2"><g id="LINE_LOGO" data-name="LINE LOGO"><circle class="cls-1" cx="60" cy="60" r="60"/><g id="TYPE_A" data-name="TYPE A"><path d="M99.91 56.4C99.91 38.54 82 24 60 24S20.09 38.54 20.09 56.4c0 16 14.2 29.42 33.38 31.95 1.3.28 3.07.86 3.51 2a8 8 0 0 1 .13 3.61l-.57 3.41c-.17 1-.8 4 3.46 2.15S83 86 91.36 76.32c5.78-6.32 8.55-12.78 8.55-19.92" fill="#fff"/><path class="cls-1" d="M51.89 47.77h-2.8a.78.78 0 0 0-.78.77v17.39a.78.78 0 0 0 .78.78h2.8a.78.78 0 0 0 .78-.78V48.54a.78.78 0 0 0-.78-.77m19.27 0h-2.8a.78.78 0 0 0-.78.77v10.33l-8-10.76-.03-.11v-.05h-3.38a.78.78 0 0 0-.78.77v17.21a.78.78 0 0 0 .78.78H59a.77.77 0 0 0 .77-.78V55.61l8 10.77a.89.89 0 0 0 .2.19h.11a.64.64 0 0 0 .2 0h2.8a.78.78 0 0 0 .78-.78V48.54a.78.78 0 0 0-.78-.77M45.14 62.35h-7.6V48.54a.78.78 0 0 0-.78-.77H34a.78.78 0 0 0-.78.77v17.39a.8.8 0 0 0 .22.54.76.76 0 0 0 .54.22h11.16a.78.78 0 0 0 .78-.78v-2.8a.78.78 0 0 0-.78-.78m41.48-10.21a.77.77 0 0 0 .77-.78v-2.79a.77.77 0 0 0-.77-.78H75.43a.73.73 0 0 0-.53.22.78.78 0 0 0-.21.53v17.41a.76.76 0 0 0 .22.54.75.75 0 0 0 .53.22h11.18a.77.77 0 0 0 .77-.78v-2.8a.77.77 0 0 0-.77-.78H79v-2.91h7.61a.77.77 0 0 0 .77-.78v-2.8a.77.77 0 0 0-.77-.78H79v-2.94z"/></g></g></g></svg>