<svg xmlns="http://www.w3.org/2000/svg" width="38.691" height="30.369" viewBox="0 0 38.691 30.369">
  <path id="mail" d="M38.592,59.383a5.365,5.365,0,0,0-1.108-2.343,4.627,4.627,0,0,0-.365-.4,5.353,5.353,0,0,0-3.793-1.577H5.365a5.365,5.365,0,0,0-3.793,1.573,4.745,4.745,0,0,0-.363.4,5.282,5.282,0,0,0-1.1,2.346A5.154,5.154,0,0,0,0,60.428V80.063a5.333,5.333,0,0,0,.444,2.131,5.263,5.263,0,0,0,1.128,1.663c.12.12.24.23.37.34A5.365,5.365,0,0,0,5.365,85.43H33.326a5.327,5.327,0,0,0,3.425-1.239,4.4,4.4,0,0,0,.37-.335,5.366,5.366,0,0,0,1.134-1.663v0a5.308,5.308,0,0,0,.438-2.127V60.428A5.559,5.559,0,0,0,38.592,59.383ZM3.515,58.575a2.591,2.591,0,0,1,1.851-.769H33.326a2.574,2.574,0,0,1,2.087,1.044L20.76,71.621a2.15,2.15,0,0,1-2.826,0L3.285,58.845a2.013,2.013,0,0,1,.23-.27ZM2.745,80.063V61.685l10.6,9.251-10.6,9.241A.787.787,0,0,1,2.745,80.063Zm30.581,2.621H5.365a2.576,2.576,0,0,1-1.3-.348l11.184-9.748,1.044.907a4.645,4.645,0,0,0,6.105,0l1.044-.907,11.176,9.748A2.582,2.582,0,0,1,33.326,82.684Zm2.622-2.621a.8.8,0,0,1-.005.115l-10.6-9.236,10.6-9.251Z" transform="translate(0 -55.061)" fill="#f21d46"/>
</svg>
