<svg xmlns="http://www.w3.org/2000/svg" width="30.105" height="30.105" viewBox="0 0 30.105 30.105"><defs><style>.a{fill:#707070;}</style></defs><path class="a" d="M29,1.436,22.886.025a1.42,1.42,0,0,0-1.617.817L18.447,7.428a1.408,1.408,0,0,0,.406,1.646l3.563,2.916A21.791,21.791,0,0,1,12,22.409L9.08,18.846a1.41,1.41,0,0,0-1.646-.406L.849,21.263a1.428,1.428,0,0,0-.823,1.623L1.437,29a1.411,1.411,0,0,0,1.376,1.094A27.279,27.279,0,0,0,30.094,2.812,1.409,1.409,0,0,0,29,1.436Z" transform="translate(0.01 0.011)"/></svg>