<svg xmlns="http://www.w3.org/2000/svg" viewBox="0 0 512 512"><defs><style>.cls-1{fill:#717070;}</style></defs><g id="レイヤー_2" data-name="レイヤー 2"><g id="レイヤー_1-2" data-name="レイヤー 1"><path class="cls-1" d="M8.49,407.28a28.91,28.91,0,0,0,0,40.93l46.92,47c49.76,49.74,202.21-16.07,313-126.8S544.91,105.17,495.14,55.42L448.22,8.48a29,29,0,0,0-41,0L329.46,86.3a29,29,0,0,0,0,41l35.3,35.28a29,29,0,0,1,2.43,38.21s-22.26,33.77-77.47,89-89,77.46-89,77.46a29,29,0,0,1-38.21-2.41l-35.3-35.33a29,29,0,0,0-40.95,0Z"/></g></g></svg>